<?xml version="1.0" encoding="UTF-8" standalone="no"?>
<!DOCTYPE svg PUBLIC "-//W3C//DTD SVG 1.1//EN" "http://www.w3.org/Graphics/SVG/1.1/DTD/svg11.dtd">
<svg width="1067px" height="1067px" version="1.1" xmlns="http://www.w3.org/2000/svg" xmlns:xlink="http://www.w3.org/1999/xlink" xml:space="preserve" xmlns:serif="http://www.serif.com/" style="fill-rule:evenodd;clip-rule:evenodd;stroke-linejoin:round;stroke-miterlimit:2;">
    <rect id="social_linkedin" x="0" y="0" width="1066.67" height="1066.67" style="fill:none;"/>
    <g id="social_linkedin1" serif:id="social_linkedin">
        <clipPath id="_clip1">
            <rect id="itchio-textless-black.svg" x="37.5" y="95.833" width="978.033" height="879.844"/>
        </clipPath>
        <g clip-path="url(#_clip1)">
            <path d="M165.01,101.276c-42.661,25.331 -126.713,121.89 -127.51,147.213l0,41.916c0,53.133 49.665,99.832 94.758,99.832c54.145,-0 99.257,-44.874 99.261,-98.134c0,53.26 43.567,98.134 97.716,98.134c54.153,-0 96.32,-44.874 96.32,-98.134c-0,53.26 46.324,98.134 100.473,98.134l0.981,-0c54.153,-0 100.477,-44.874 100.477,-98.134c0,53.26 42.172,98.134 96.317,98.134c54.149,-0 97.715,-44.874 97.715,-98.134c-0,53.26 45.121,98.134 99.262,98.134c45.093,-0 94.757,-46.691 94.757,-99.832l0,-41.916c-0.797,-25.327 -84.848,-121.89 -127.502,-147.213c-132.596,-4.655 -224.52,-5.46 -361.52,-5.44c-136.997,0.012 -323.77,2.152 -361.513,5.44l0.008,0Zm259.859,263.937c-5.177,9.025 -11.59,17.283 -19.052,24.534c-20.44,19.985 -48.458,32.373 -79.345,32.373c-29.711,0.028 -58.277,-11.608 -79.511,-32.389c-7.406,-7.255 -13.034,-15.011 -18.188,-24.043l-0.024,0.015c-5.15,9.049 -12.324,16.801 -19.746,24.064c-21.243,20.765 -49.805,32.392 -79.512,32.365c-3.722,0 -7.597,-1.028 -10.73,-2.104c-4.352,45.328 -6.19,88.647 -6.84,120.232l-0.008,0.179c-0.079,16.039 -0.159,29.229 -0.239,47.552c0.837,95.105 -9.418,308.249 41.932,360.62c79.576,18.554 226.003,27.005 372.905,27.056l0.024,0c146.897,-0.051 293.325,-8.502 372.9,-27.056c51.351,-52.375 41.095,-265.519 41.932,-360.624c-0.088,-18.319 -0.159,-31.509 -0.239,-47.552l-0.012,-0.179c-0.646,-31.593 -2.483,-74.908 -6.836,-120.236c-3.133,1.076 -7.003,2.104 -10.73,2.104c-29.706,0.027 -58.269,-11.6 -79.512,-32.365c-7.421,-7.263 -14.596,-15.011 -19.75,-24.063l-0.024,-0.016c-5.158,9.032 -10.782,16.792 -18.188,24.043c-21.233,20.779 -49.798,32.414 -79.507,32.385c-30.883,0 -58.904,-12.396 -79.344,-32.377c-7.463,-7.251 -13.876,-15.509 -19.053,-24.534c-5.122,9.016 -11.476,17.273 -18.877,24.534c-21.24,20.777 -49.808,32.41 -79.52,32.381c-1.076,0 -2.152,-0.047 -3.228,-0.079l-0.028,-0c-1.077,0.032 -2.153,0.079 -3.241,0.079c-29.711,0.03 -58.279,-11.602 -79.519,-32.377c-7.402,-7.261 -13.756,-15.519 -18.878,-24.534l-0.012,0.012Zm-81.656,105.588l-0.008,0.04l0.06,-0c32.338,0.067 61.065,-0 96.659,38.846c28.013,-2.937 57.286,-4.404 86.583,-4.36l0.024,-0c29.296,-0.04 58.569,1.423 86.586,4.36c35.595,-38.85 64.321,-38.783 96.659,-38.846l0.056,-0l-0.008,-0.04c15.278,-0 76.394,-0 118.98,119.606l45.743,164.081c33.896,122.065 -10.854,125.051 -66.673,125.158c-82.78,-3.081 -128.614,-63.197 -128.614,-123.305c-45.823,7.51 -99.278,11.265 -152.733,11.268l-0.024,0c-53.46,0 -106.915,-3.758 -152.733,-11.268c-0,60.108 -45.839,120.224 -128.615,123.305c-55.819,-0.107 -100.565,-3.089 -66.668,-125.158l45.754,-164.077c42.586,-119.606 103.702,-119.606 118.98,-119.606l-0.008,-0.004Zm183.294,93.996l-0,0.024c-0.08,0.08 -87.145,80.038 -102.798,108.477l57.015,-2.284l0,49.721c0,2.328 22.88,1.379 45.783,0.319l0.024,-0c22.895,1.06 45.778,2.009 45.778,-0.319l0,-49.721l57.015,2.284c-15.657,-28.439 -102.797,-108.477 -102.797,-108.477l-0,-0.024l-0.012,0.008l-0.008,-0.008Z" style="fill:#fff;fill-rule:nonzero;"/>
        </g>
    </g>
</svg>
