<?xml version="1.0" encoding="UTF-8" standalone="no"?>
<!DOCTYPE svg PUBLIC "-//W3C//DTD SVG 1.1//EN" "http://www.w3.org/Graphics/SVG/1.1/DTD/svg11.dtd">
<svg width="100%" height="100%" viewBox="0 0 1067 1067" version="1.1" xmlns="http://www.w3.org/2000/svg" xmlns:xlink="http://www.w3.org/1999/xlink" xml:space="preserve" xmlns:serif="http://www.serif.com/" style="fill-rule:evenodd;clip-rule:evenodd;stroke-linejoin:round;stroke-miterlimit:2;">
    <g id="social_linkedin">
        <g>
            <path d="M165.01,101.276C122.349,126.607 38.297,223.166 37.5,248.489L37.5,290.405C37.5,343.538 87.165,390.237 132.258,390.237C186.403,390.237 231.515,345.363 231.519,292.103C231.519,345.363 275.086,390.237 329.235,390.237C383.388,390.237 425.555,345.363 425.555,292.103C425.555,345.363 471.879,390.237 526.028,390.237L527.009,390.237C581.162,390.237 627.486,345.363 627.486,292.103C627.486,345.363 669.658,390.237 723.803,390.237C777.952,390.237 821.518,345.363 821.518,292.103C821.518,345.363 866.639,390.237 920.78,390.237C965.873,390.237 1015.54,343.546 1015.54,290.405L1015.54,248.489C1014.74,223.162 930.689,126.599 888.035,101.276C755.439,96.621 663.515,95.816 526.515,95.836C389.518,95.848 202.745,97.988 165.002,101.276L165.01,101.276ZM424.869,365.213C419.692,374.238 413.279,382.496 405.817,389.747C385.377,409.732 357.359,422.12 326.472,422.12C296.761,422.148 268.195,410.512 246.961,389.731C239.555,382.476 233.927,374.72 228.773,365.688L228.749,365.703C223.599,374.752 216.425,382.504 209.003,389.767C187.76,410.532 159.198,422.159 129.491,422.132C125.769,422.132 121.894,421.104 118.761,420.028C114.409,465.356 112.571,508.675 111.921,540.26L111.913,540.439C111.834,556.478 111.754,569.668 111.674,587.991C112.511,683.096 102.256,896.24 153.606,948.611C233.182,967.165 379.609,975.616 526.511,975.667L526.535,975.667C673.432,975.616 819.86,967.165 899.435,948.611C950.786,896.236 940.53,683.092 941.367,587.987C941.279,569.668 941.208,556.478 941.128,540.435L941.116,540.256C940.47,508.663 938.633,465.348 934.28,420.02C931.147,421.096 927.277,422.124 923.55,422.124C893.844,422.151 865.281,410.524 844.038,389.759C836.617,382.496 829.442,374.748 824.288,365.696L824.264,365.68C819.106,374.712 813.482,382.472 806.076,389.723C784.843,410.502 756.278,422.137 726.569,422.108C695.686,422.108 667.665,409.712 647.225,389.731C639.762,382.48 633.349,374.222 628.172,365.197C623.05,374.213 616.696,382.47 609.295,389.731C588.055,410.508 559.487,422.141 529.775,422.112C528.699,422.112 527.623,422.065 526.547,422.033L526.519,422.033C525.442,422.065 524.366,422.112 523.278,422.112C493.567,422.142 464.999,410.51 443.759,389.735C436.357,382.474 430.003,374.216 424.881,365.201L424.869,365.213ZM343.213,470.801L343.205,470.841L343.265,470.841C375.603,470.908 404.33,470.841 439.924,509.687C467.937,506.75 497.21,505.283 526.507,505.327L526.531,505.327C555.827,505.287 585.1,506.75 613.117,509.687C648.712,470.837 677.438,470.904 709.776,470.841L709.832,470.841L709.824,470.801C725.102,470.801 786.218,470.801 828.804,590.407L874.547,754.488C908.443,876.553 863.693,879.539 807.874,879.646C725.094,876.565 679.26,816.449 679.26,756.341C633.437,763.851 579.982,767.606 526.527,767.609L526.503,767.609C473.043,767.609 419.588,763.851 373.77,756.341C373.77,816.449 327.931,876.565 245.155,879.646C189.336,879.539 144.59,876.557 178.487,754.488L224.241,590.411C266.827,470.805 327.943,470.805 343.221,470.805L343.213,470.801ZM526.507,564.797L526.507,564.821C526.427,564.901 439.362,644.859 423.709,673.298L480.724,671.014L480.724,720.735C480.724,723.063 503.604,722.114 526.507,721.054L526.531,721.054C549.426,722.114 572.309,723.063 572.309,720.735L572.309,671.014L629.324,673.298C613.667,644.859 526.527,564.821 526.527,564.821L526.527,564.797L526.515,564.805L526.507,564.797Z"/>
        </g>
    </g>
</svg>
